<!DOCTYPE svg PUBLIC "-//W3C//DTD SVG 1.1//EN" "http://www.w3.org/Graphics/SVG/1.1/DTD/svg11.dtd">
<!-- Uploaded to: SVG Repo, www.svgrepo.com, Transformed by: SVG Repo Mixer Tools -->
<svg height="800px" width="800px" version="1.1" id="Layer_1" xmlns="http://www.w3.org/2000/svg" xmlns:xlink="http://www.w3.org/1999/xlink" viewBox="0 0 508 508" xml:space="preserve" fill="#000000">
<g id="SVGRepo_bgCarrier" stroke-width="0"/>
<g id="SVGRepo_tracerCarrier" stroke-linecap="round" stroke-linejoin="round"/>
<g id="SVGRepo_iconCarrier"> <circle style="fill:#a5c3f3;" cx="254" cy="254" r="254"/> <path style="fill:#FFFFFF;" d="M254,75.6c-17.2,22.4-62,63.2-152.8,49.6v67.2c0,184.4,152.8,240.4,152.8,240.4s152.8-56,152.8-240.4 v-67.2C316,138.8,271.2,98,254,75.6z"/> <path style="fill:#536a93;" d="M254,259.2v136l0,0c12.4-6.4,32.4-18.4,52.8-38c19.2-18.4,34.4-40,45.2-63.6 c4.8-10.8,9.2-22.4,12.4-34L254,259.2z"/> <path style="fill:#82aff8;" d="M364.4,259.2c5.6-20.8,8.4-43.2,8.4-67.2v-30.4c-0.4,0-0.8,0-1.2,0c-55.2,0-93.2-18.4-117.6-38.4v136 H364.4z"/> <path style="fill:#536a93;" d="M254,123.6L254,123.6c-24.4,19.6-62.4,38.4-117.6,38.4c0,0-0.8,0-1.2,0v30.4c0,23.6,2.8,46,8.4,67.2 H254V123.6z"/> <path style="fill:#82aff8;" d="M143.6,259.6c3.2,11.2,6.8,22,11.6,32.4c10.8,23.6,25.6,44.8,44,63.6c20.8,20.8,42,33.6,54.8,40v-136 H143.6z"/> </g>
</svg>