<?xml version="1.0" encoding="iso-8859-1"?>
<!-- Uploaded to: SVG Repo, www.svgrepo.com, Generator: SVG Repo Mixer Tools -->
<svg height="800px" width="800px" version="1.1" id="Layer_1" xmlns="http://www.w3.org/2000/svg" xmlns:xlink="http://www.w3.org/1999/xlink" 
	 viewBox="0 0 512 512" xml:space="preserve">
<circle style="fill:#324A5E;" cx="256" cy="256" r="256"/>
<path style="fill:#2B3B4E;" d="M162.109,293.481l-21.035,53.886l-9.997,33.549l131.448,131.001
	c135.83-3.4,245.376-112.599,249.351-248.284L380.923,131.084l-47.17,6.144l-40.272,24.885l27.432,28.229l-21.604,21.752
	l-80.789-81.015l-73.537,22.523l-13.9,64.917l81.31,81.087l-0.064,0.066l0.45,0.45l-22.025,21.783L162.109,293.481z"/>
<polygon style="fill:#FFFFFF;" points="380.923,218.521 380.923,131.084 293.488,131.082 293.481,162.113 327.945,162.114 
	256.002,234.058 184.051,162.109 218.521,162.109 218.521,131.079 131.084,131.077 131.084,218.519 162.114,218.514 
	162.114,184.056 234.058,256 162.109,327.949 162.109,293.481 131.079,293.481 131.079,380.916 218.514,380.916 218.514,349.886 
	184.056,349.886 256,277.942 327.951,349.893 293.481,349.893 293.481,380.923 380.918,380.923 380.918,293.486 349.887,293.486 
	349.887,327.945 277.942,256 349.893,184.051 349.893,218.521 "/>
<polygon style="fill:#E6F3FF;" points="256,277.942 327.951,349.893 293.481,349.893 293.481,380.923 380.918,380.923 
	380.918,293.486 349.887,293.486 349.887,327.945 277.942,256 349.893,184.051 349.893,218.521 380.923,218.521 380.923,131.084 
	293.488,131.082 293.481,162.113 327.945,162.114 256.002,234.058 "/>
</svg>