<?xml version="1.0" encoding="iso-8859-1"?>
<!-- Uploaded to: SVG Repo, www.svgrepo.com, Generator: SVG Repo Mixer Tools -->
<svg height="800px" width="800px" version="1.1" id="Layer_1" xmlns="http://www.w3.org/2000/svg" xmlns:xlink="http://www.w3.org/1999/xlink" 
	 viewBox="0 0 512.001 512.001" xml:space="preserve">
<path style="fill:#4FC0E8;" d="M0.001,256.006c0,141.395,114.606,255.998,255.996,255.994
	c141.398,0.004,256.004-114.598,256.004-255.994C512.009,114.61,397.395,0,255.996,0C114.606,0,0.001,114.614,0.001,256.006z"/>
<path style="fill:#3DAED9;" d="M512.001,256.005c0.001-20.838-2.548-41.071-7.245-60.464c-0.511-0.553-82.244-82.287-82.798-82.798
	c-0.512-0.554-1.039-1.081-1.593-1.594c-5.243-5.669-12.676-9.281-20.987-9.281H112.622c-15.81,0-28.674,12.864-28.674,28.675
	v215.067c0,8.311,3.611,15.744,9.279,20.986c0.513,0.555,142.766,142.807,143.319,143.319c0.444,0.479,0.907,0.931,1.379,1.379
	c5.977,0.418,11.989,0.706,18.071,0.706C397.395,512.004,512.001,397.401,512.001,256.005z"/>
<g>
	<path style="fill:#F6F6F6;" d="M399.378,101.87H112.623c-15.811,0-28.675,12.864-28.675,28.675v215.066
		c0,15.811,12.864,28.675,28.675,28.675h100.364v21.506h-50.181c-3.959,0-7.169,3.21-7.169,7.169s3.21,7.169,7.169,7.169h57.35
		h71.689h57.35c3.959,0,7.169-3.21,7.169-7.169s-3.21-7.169-7.169-7.169h-50.182v-21.506h100.364
		c15.811,0,28.675-12.864,28.675-28.675V130.545C428.053,114.734,415.189,101.87,399.378,101.87z M284.676,395.793h-57.35v-21.506
		h57.35V395.793z M413.716,345.611c0,7.907-6.43,14.338-14.338,14.338H291.845h-71.689H112.623c-7.907,0-14.338-6.43-14.338-14.338
		V130.545c0-7.907,6.43-14.338,14.338-14.338h286.754c7.907,0,14.338,6.43,14.338,14.338V345.611z"/>
	<path style="fill:#F6F6F6;" d="M112.623,316.935h286.754v-186.39H112.623V316.935z M126.962,144.883h258.079v157.715H126.962
		V144.883z"/>
	<path style="fill:#F6F6F6;" d="M256.001,324.105c-7.907,0-14.338,6.43-14.338,14.338c0,7.907,6.43,14.338,14.338,14.338
		s14.338-6.43,14.338-14.338C270.339,330.534,263.908,324.105,256.001,324.105z"/>
</g>
</svg>