<!DOCTYPE svg PUBLIC "-//W3C//DTD SVG 1.1//EN" "http://www.w3.org/Graphics/SVG/1.1/DTD/svg11.dtd">
<!-- Uploaded to: SVG Repo, www.svgrepo.com, Transformed by: SVG Repo Mixer Tools -->
<svg fill="#3d6cb8" height="800px" width="800px" version="1.2" baseProfile="tiny" id="Layer_1" xmlns="http://www.w3.org/2000/svg" xmlns:xlink="http://www.w3.org/1999/xlink" viewBox="-351 153 256 256" xml:space="preserve" stroke="#3d6cb8">
<g id="SVGRepo_bgCarrier" stroke-width="0"/>
<g id="SVGRepo_tracerCarrier" stroke-linecap="round" stroke-linejoin="round"/>
<g id="SVGRepo_iconCarrier"> <path d="M-322.8,294.3c12,0,21.8-9.8,21.8-21.6c0-12-9.8-21.8-21.8-21.8c-12,0-21.8,9.8-21.8,21.8 C-344.5,284.6-334.7,294.3-322.8,294.3z M-322.8,253.9c10.3,0,18.7,8.4,18.7,18.7s-8.4,18.7-18.7,18.7c-10.3,0-18.7-8.4-18.7-18.7 C-341.5,262.3-333.1,253.9-322.8,253.9z M-329.5,282.1l7.7-8.5c0,0,0.4-0.6,0.3-1.1v-15.8c0,0-0.1-1.4-1.4-1.4s-1.4,1.4-1.4,1.4 v15.6l-7.4,8.1c0,0-0.8,1.1,0.1,1.9C-330.5,283-329.5,282.1-329.5,282.1z M-124.2,249l4.4-11.7H-141l3.7,11.7H-124.2z M-130.4,296.3 c12.7,0,23-10.3,23-23c0-8.9-5.1-16.7-12.4-20.5v-0.1H-141v0.1c-7.4,3.9-12.4,11.6-12.4,20.5C-153.4,285.9-143.1,296.3-130.4,296.3z M-131.7,276c-3.4-1.1-5.8-2.8-5.8-5.9c0-2.9,2.1-5.1,5.5-5.8v-3h3.2v2.9c2.2,0.1,3.6,0.6,4.7,1.1l-1,3.6c-0.8-0.4-2.3-1.1-4.7-1.1 c-2.1,0-2.8,1-2.8,1.8c0,1.1,1.1,1.8,3.9,2.8c3.9,1.4,5.4,3.2,5.4,6.1c0,2.9-2.1,5.4-5.8,5.9v3.3h-3.2v-3c-2.2-0.1-4.3-0.7-5.5-1.4 l1-3.7c1.4,0.7,3.3,1.4,5.4,1.4c1.8,0,3-0.7,3-2.1C-128.2,277.7-129.2,276.8-131.7,276z M-224,251.7c15,0,27.1-12,27.1-27.1 c0-15-12-27.1-27.1-27.1c-15,0-27.1,12-27.1,27.1C-251.2,239.7-239.2,251.7-224,251.7z M-111.6,330.3h-48.7c-3.9,0-8.5-1.4-11.3-5.5 l-18.6-26.6l-0.1,60.2H-257l-0.1-60.2l-18.6,26.6c-2.8,4.1-7.4,5.5-11.3,5.5h-48.7c-15.8,0-16.7-24.1,0.3-24.1h42.1l24.4-35.5 c7.2-9.8,15.3-14.5,26.8-14.5h36.1c11.6,0,19.7,4.3,26.8,14.5l24.4,35.5h42.4C-95.5,306.2-96.6,330.3-111.6,330.3z"/> </g>
</svg>