<?xml version="1.0" encoding="iso-8859-1"?>
<!-- Uploaded to: SVG Repo, www.svgrepo.com, Generator: SVG Repo Mixer Tools -->
<svg version="1.1" id="Layer_1" xmlns="http://www.w3.org/2000/svg" xmlns:xlink="http://www.w3.org/1999/xlink" 
	 viewBox="0 0 511.996 511.996" xml:space="preserve">
<g>
	<rect x="298.656" y="469.306" style="fill:#8D6E63;" width="196.257" height="25.599"/>
	<rect x="332.788" y="409.575" style="fill:#8D6E63;" width="127.994" height="42.665"/>
	
		<rect x="232.601" y="62.337" transform="matrix(-0.7071 0.7071 -0.7071 -0.7071 537.8774 41.7391)" style="fill:#8D6E63;" width="55.387" height="139.862"/>
	
		<rect x="8.502" y="289.44" transform="matrix(-0.7071 0.7071 -0.7071 -0.7071 365.0562 458.9241)" style="fill:#8D6E63;" width="157.96" height="31.256"/>
	
		<rect x="152.556" y="196.664" transform="matrix(-0.7071 0.7071 -0.7071 -0.7071 439.7218 278.6494)" style="fill:#8D6E63;" width="19.19" height="67.461"/>
	
		<rect x="276.705" y="190.957" transform="matrix(-0.7071 0.7071 -0.7071 -0.7071 702.6525 110.0557)" style="fill:#8D6E63;" width="103.657" height="19.19"/>
	
		<rect x="171.079" y="172.098" transform="matrix(-0.7071 0.7071 -0.7071 -0.7071 482.3736 175.6463)" style="fill:#8D6E63;" width="67.461" height="31.256"/>
</g>
<path d="M503.463,452.265h-25.599v-51.197c0-4.693-3.84-8.533-8.533-8.533H324.272c-4.693,0-8.533,3.84-8.533,8.533v51.197H290.14
	c-4.693,0-8.533,3.84-8.533,8.533v42.665c0,4.693,3.84,8.533,8.533,8.533h213.323c4.693,0,8.533-3.84,8.533-8.533v-42.665
	C511.996,456.105,508.164,452.265,503.463,452.265z M332.805,409.601h127.994v42.665H332.805V409.601z M494.93,494.93H298.673
	v-25.599H494.93V494.93z"/>
<path d="M390.061,164.621l-25.599-25.599c-3.328-3.328-8.789-3.328-12.117,0l-11.007,11.093l-98.896-98.896l11.093-11.007
	c3.328-3.328,3.328-8.789,0-12.117L227.935,2.496c-3.328-3.328-8.789-3.328-12.117,0L130.49,87.825
	c-3.328,3.328-3.328,8.789,0,12.117l25.599,25.599c1.707,1.621,3.84,2.475,6.058,2.475c2.219,0,4.352-0.853,6.058-2.475
	l11.007-11.093l26.367,26.367l-47.699,47.699l-6.741-6.826c-3.328-3.328-8.789-3.328-12.117,0l-25.599,25.599
	c-3.328,3.328-3.328,8.789,0,12.117l6.826,6.741L2.496,343.812c-3.328,3.328-3.328,8.789,0,12.117l34.132,34.132
	c1.707,1.621,3.84,2.475,6.058,2.475c2.219,0,4.352-0.853,6.058-2.475l117.669-117.754l6.741,6.826
	c1.707,1.621,3.84,2.475,6.058,2.475c2.219,0,4.352-0.853,6.058-2.475l25.599-25.599c3.328-3.328,3.328-8.789,0-12.117l-6.826-6.741
	l47.699-47.699l26.367,26.367l-11.093,11.007c-3.328,3.328-3.328,8.789,0,12.117l25.599,25.599c1.707,1.621,3.84,2.475,6.058,2.475
	s4.352-0.853,6.058-2.475l85.329-85.329C393.388,173.41,393.388,167.949,390.061,164.621z M162.147,107.442l-13.567-13.567
	l73.298-73.298l13.567,13.567L162.147,107.442z M42.686,371.962l-22.1-22.1l111.696-111.696l22.1,22.1L42.686,371.962z
	 M179.212,261.034l-47.699-47.699l13.567-13.567l47.699,47.699L179.212,261.034z M192.012,222.636l-22.1-22.1l47.699-47.699
	l22.1,22.1L192.012,222.636z M191.244,102.416L230.41,63.25l98.896,98.896l-39.166,39.166L191.244,102.416z M298.673,243.969
	l-13.567-13.567l73.298-73.298l13.567,13.567L298.673,243.969z"/>
<rect x="140.185" y="54.43" transform="matrix(-0.7071 0.7071 -0.7071 -0.7071 373.06 -26.4756)" style="fill:#8D6E63;" width="103.657" height="19.19"/>
<rect x="15.465" y="306.25" transform="matrix(-0.7071 0.7071 -0.7071 -0.7071 381.8658 465.8871)" style="fill:#6D4C41;" width="157.96" height="11.562"/>
<polygon style="fill:#8D6E63;" points="146.856,201.543 145.081,199.777 145.021,199.836 "/>
<g>
	
		<rect x="172.293" y="244.405" transform="matrix(-0.7071 0.7071 -0.7071 -0.7071 487.4108 298.4797)" style="fill:#6D4C41;" width="19.19" height="11.562"/>
	<polygon style="fill:#6D4C41;" points="364.624,163.324 290.507,235.803 298.673,243.969 371.979,170.679 	"/>
	
		<rect x="178.043" y="188.894" transform="matrix(-0.7071 0.7071 -0.7071 -0.7071 499.1681 182.5874)" style="fill:#6D4C41;" width="67.452" height="11.562"/>
	
		<rect x="187.396" y="81.06" transform="matrix(-0.7071 0.7071 -0.7071 -0.7071 428.7648 -3.4155)" style="fill:#6D4C41;" width="55.387" height="12.065"/>
	<polygon style="fill:#6D4C41;" points="477.864,469.331 477.864,477.864 298.673,477.864 298.673,494.93 494.93,494.93 
		494.93,469.331 	"/>
	<rect x="443.715" y="409.575" style="fill:#6D4C41;" width="17.066" height="42.665"/>
</g>
</svg>